<svg width="59" height="22" viewBox="0 0 59 22" fill="none" xmlns="http://www.w3.org/2000/svg">
<path d="M26.33 14.02H31.46V16H24.26V3.4H26.33V14.02ZM38.8309 7H40.7749V16H38.8309V14.848C38.2429 15.772 37.3129 16.234 36.0409 16.234C35.0089 16.234 34.1749 15.904 33.5389 15.244C32.9029 14.584 32.5849 13.678 32.5849 12.526V7H34.5289V12.328C34.5289 13 34.7089 13.516 35.0689 13.876C35.4289 14.236 35.9209 14.416 36.5449 14.416C37.2289 14.416 37.7809 14.206 38.2009 13.786C38.6209 13.354 38.8309 12.7 38.8309 11.824V7ZM44.9921 8.512C45.4841 7.396 46.4081 6.838 47.7641 6.838V8.944C47.0201 8.896 46.3721 9.076 45.8201 9.484C45.2681 9.88 44.9921 10.54 44.9921 11.464V16H43.0481V7H44.9921V8.512ZM55.9065 7H57.8505V16H55.9065V14.704C55.1745 15.724 54.1245 16.234 52.7565 16.234C51.5205 16.234 50.4645 15.778 49.5885 14.866C48.7125 13.942 48.2745 12.82 48.2745 11.5C48.2745 10.168 48.7125 9.046 49.5885 8.134C50.4645 7.222 51.5205 6.766 52.7565 6.766C54.1245 6.766 55.1745 7.27 55.9065 8.278V7ZM51.0285 13.57C51.5685 14.11 52.2465 14.38 53.0625 14.38C53.8785 14.38 54.5565 14.11 55.0965 13.57C55.6365 13.018 55.9065 12.328 55.9065 11.5C55.9065 10.672 55.6365 9.988 55.0965 9.448C54.5565 8.896 53.8785 8.62 53.0625 8.62C52.2465 8.62 51.5685 8.896 51.0285 9.448C50.4885 9.988 50.2185 10.672 50.2185 11.5C50.2185 12.328 50.4885 13.018 51.0285 13.57Z" fill="#48BA65"/>
<path d="M12.2487 9.28783L16.7873 6.66746C17.1678 6.44779 17.6543 6.57815 17.8739 6.95863L17.9706 7.12612C18.5962 8.20959 18.6194 9.53889 18.0322 10.6436C17.3168 11.9894 15.6823 12.5527 14.2896 11.9335L12.3424 11.0676C11.5956 10.7355 11.5409 9.69647 12.2487 9.28783Z" stroke="#48BA65" stroke-width="2"/>
<path fill-rule="evenodd" clip-rule="evenodd" d="M16.1102 14.6357L11.7487 12.1176L11.9725 14.2369C12.0774 15.2304 12.9329 15.9737 13.9314 15.9387C14.8334 15.9071 15.6559 15.415 16.1102 14.6357ZM17.2873 13.0059C18.1461 13.5017 18.4403 14.5998 17.9445 15.4586L17.8478 15.6261C17.0499 17.0081 15.5963 17.8816 14.0014 17.9375C11.9534 18.0092 10.1987 16.4848 9.98356 14.4469L9.75979 12.3276C9.58815 10.702 11.3331 9.56822 12.7487 10.3855L17.2873 13.0059Z" fill="#48BA65"/>
<path fill-rule="evenodd" clip-rule="evenodd" d="M9.54797 17.2697V12.2335L7.82449 13.4869C7.01648 14.0746 6.80056 15.1871 7.33009 16.0343C7.80846 16.7997 8.64591 17.2659 9.54797 17.2697ZM11.548 17.4742C11.548 18.4658 10.7441 19.2697 9.75248 19.2697H9.55908C7.96321 19.2697 6.4799 18.4476 5.63409 17.0943C4.548 15.3565 4.99085 13.0748 6.64815 11.8695L8.37163 10.616C9.69357 9.6546 11.548 10.5989 11.548 12.2335V17.4742Z" fill="#48BA65"/>
<path fill-rule="evenodd" clip-rule="evenodd" d="M3.98579 12.9037L8.34728 10.3856L6.40003 9.51972C5.4871 9.11378 4.4157 9.48304 3.94673 10.3652C3.52307 11.1622 3.53805 12.1206 3.98579 12.9037ZM4.80867 14.738C3.9499 15.2338 2.85179 14.9396 2.35598 14.0808L2.25928 13.9133C1.46134 12.5312 1.43166 10.8356 2.18075 9.42646C3.14264 7.617 5.34015 6.85963 7.21263 7.69224L9.15988 8.5581C10.6535 9.22222 10.7629 11.3003 9.34728 12.1176L4.80867 14.738Z" fill="#48BA65"/>
<path fill-rule="evenodd" clip-rule="evenodd" d="M4.98555 5.90358L9.34703 8.42168L9.12326 6.30239C9.01835 5.3088 8.16287 4.56557 7.16437 4.60053C6.26234 4.63212 5.43987 5.12427 4.98555 5.90358ZM3.80842 7.53337C2.94965 7.03756 2.65541 5.93945 3.15123 5.08068L3.24793 4.91319C4.04586 3.53112 5.49949 2.6576 7.09438 2.60176C9.14237 2.53005 10.897 4.05447 11.1122 6.09238L11.336 8.21168C11.5076 9.83721 9.76262 10.971 8.34703 10.1537L3.80842 7.53337Z" fill="#48BA65"/>
<path d="M10.548 8.30594V3.06521C10.548 2.62587 10.9041 2.26971 11.3435 2.26971H11.5369C12.788 2.26971 13.9508 2.91421 14.6139 3.97513C15.4217 5.26762 15.0923 6.96476 13.8596 7.86124L12.1361 9.11468C11.4752 9.59539 10.548 9.12323 10.548 8.30594Z" stroke="#48BA65" stroke-width="2"/>
</svg>
