<svg width="238" height="245" viewBox="0 0 238 245" fill="none" xmlns="http://www.w3.org/2000/svg">
<circle cx="160.196" cy="234.786" r="6.87919" transform="rotate(-72.5 160.196 234.786)" fill="white"/>
<circle cx="219.611" cy="183.608" r="6.87919" transform="rotate(-72.5 219.611 183.608)" fill="white"/>
<circle cx="205.314" cy="45.9379" r="6.87919" transform="rotate(-72.5 205.314 45.9379)" fill="white"/>
<circle cx="132.74" cy="8.62939" r="6.87919" transform="rotate(-72.5 132.74 8.62939)" fill="white"/>
<circle cx="56.3668" cy="25.6073" r="6.87919" transform="rotate(-72.5 56.3668 25.6073)" fill="white"/>
<circle cx="23.7133" cy="55.2608" r="6.87919" transform="rotate(-72.5 23.7133 55.2608)" fill="white"/>
<circle cx="8.62942" cy="177.01" r="6.87919" transform="rotate(-72.5 8.62942 177.01)" fill="white"/>
<circle cx="73.1928" cy="236.205" r="6.87919" transform="rotate(-72.5 73.1928 236.205)" fill="white"/>
<circle cx="12.1305" cy="165.906" r="6.87919" transform="rotate(-72.5 12.1305 165.906)" fill="white"/>
<circle cx="153.45" cy="231.548" r="6.87919" transform="rotate(-72.5 153.45 231.548)" fill="white"/>
<circle cx="222.893" cy="159.12" r="6.87919" transform="rotate(-72.5 222.893 159.12)" fill="white"/>
<circle cx="227.176" cy="113.863" r="6.87919" transform="rotate(-72.5 227.176 113.863)" fill="white"/>
<circle cx="81.8498" cy="233.386" r="6.87919" transform="rotate(-72.5 81.8498 233.386)" fill="white"/>
<circle cx="186.639" cy="214.271" r="6.87919" transform="rotate(-72.5 186.639 214.271)" fill="white"/>
<circle cx="48.4318" cy="216.191" r="6.87919" transform="rotate(-72.5 48.4318 216.191)" fill="white"/>
<circle cx="46.1735" cy="36.8192" r="6.87919" transform="rotate(-72.5 46.1735 36.8192)" fill="white"/>
<circle cx="196.624" cy="210.76" r="5.82085" transform="rotate(-72.5 196.624 210.76)" fill="white" fill-opacity="0.8"/>
<circle cx="229.949" cy="140.261" r="5.82085" transform="rotate(-72.5 229.949 140.261)" fill="white" fill-opacity="0.8"/>
</svg>
