<svg width="247" height="268" viewBox="0 0 247 268" fill="none" xmlns="http://www.w3.org/2000/svg">
<circle cx="26.5848" cy="219.802" r="7.56007" transform="rotate(-94.5 26.5848 219.802)" fill="white"/>
<circle cx="197.606" cy="228.51" r="7.56007" transform="rotate(-94.5 197.606 228.51)" fill="white"/>
<circle cx="238.549" cy="126.12" r="7.56007" transform="rotate(-94.5 238.549 126.12)" fill="white"/>
<circle cx="224.279" cy="78.2433" r="7.56007" transform="rotate(-94.5 224.279 78.2433)" fill="white"/>
<circle cx="125.405" cy="259.859" r="7.56007" transform="rotate(-94.5 125.405 259.859)" fill="white"/>
<circle cx="224.314" cy="197.241" r="7.56007" transform="rotate(-94.5 224.314 197.241)" fill="white"/>
<circle cx="84.2754" cy="256.095" r="7.56007" transform="rotate(-94.5 84.2754 256.095)" fill="white"/>
<circle cx="8.12989" cy="74.2534" r="7.56007" transform="rotate(-94.5 8.12989 74.2534)" fill="white"/>
<circle cx="233.039" cy="189.553" r="6.39699" transform="rotate(-94.5 233.039 189.553)" fill="white" fill-opacity="0.8"/>
<circle cx="237.973" cy="103.999" r="6.39699" transform="rotate(-94.5 237.973 103.999)" fill="white" fill-opacity="0.8"/>
<circle cx="197.714" cy="37.1663" r="6.39699" transform="rotate(-94.5 197.714 37.1663)" fill="white" fill-opacity="0.8"/>
<circle cx="143.164" cy="11.1264" r="6.39699" transform="rotate(-94.5 143.164 11.1264)" fill="white" fill-opacity="0.8"/>
<circle cx="122.997" cy="6.87919" r="6.39699" transform="rotate(-94.5 122.997 6.87919)" fill="white" fill-opacity="0.8"/>
<circle cx="47.472" cy="25.6576" r="6.39699" transform="rotate(-94.5 47.472 25.6576)" fill="white" fill-opacity="0.8"/>
</svg>
