<svg width="21" height="19" viewBox="0 0 21 19" fill="none" xmlns="http://www.w3.org/2000/svg">
<path d="M12.2487 8.28783L16.7873 5.66746C17.1678 5.44779 17.6543 5.57815 17.8739 5.95863L17.9706 6.12612C18.5962 7.20959 18.6194 8.53889 18.0322 9.64358C17.3168 10.9894 15.6823 11.5527 14.2896 10.9335L12.3424 10.0676C11.5956 9.73553 11.5409 8.69647 12.2487 8.28783Z" stroke="white" stroke-width="2"/>
<path fill-rule="evenodd" clip-rule="evenodd" d="M16.1102 13.6357L11.7487 11.1176L11.9725 13.2369C12.0774 14.2304 12.9329 14.9737 13.9314 14.9387C14.8334 14.9071 15.6559 14.415 16.1102 13.6357ZM17.2873 12.0059C18.1461 12.5017 18.4403 13.5998 17.9445 14.4586L17.8478 14.6261C17.0499 16.0081 15.5963 16.8816 14.0014 16.9375C11.9534 17.0092 10.1987 15.4848 9.98356 13.4469L9.75979 11.3276C9.58815 9.70203 11.3331 8.56822 12.7487 9.38551L17.2873 12.0059Z" fill="white"/>
<path fill-rule="evenodd" clip-rule="evenodd" d="M9.54797 16.2697V11.2335L7.82449 12.4869C7.01648 13.0746 6.80056 14.1871 7.33009 15.0343C7.80846 15.7997 8.64591 16.2659 9.54797 16.2697ZM11.548 16.4742C11.548 17.4658 10.7441 18.2697 9.75248 18.2697H9.55908C7.96321 18.2697 6.4799 17.4476 5.63409 16.0943C4.548 14.3565 4.99085 12.0748 6.64815 10.8695L8.37163 9.61601C9.69357 8.6546 11.548 9.59891 11.548 11.2335V16.4742Z" fill="white"/>
<path fill-rule="evenodd" clip-rule="evenodd" d="M3.98579 11.9037L8.34728 9.38558L6.40003 8.51972C5.4871 8.11378 4.4157 8.48304 3.94673 9.36524C3.52307 10.1622 3.53805 11.1206 3.98579 11.9037ZM4.80867 13.738C3.9499 14.2338 2.85179 13.9396 2.35598 13.0808L2.25928 12.9133C1.46134 11.5312 1.43166 9.8356 2.18075 8.42646C3.14264 6.617 5.34015 5.85963 7.21263 6.69224L9.15988 7.5581C10.6535 8.22222 10.7629 10.3003 9.34728 11.1176L4.80867 13.738Z" fill="white"/>
<path fill-rule="evenodd" clip-rule="evenodd" d="M4.98555 4.90358L9.34703 7.42168L9.12326 5.30239C9.01835 4.3088 8.16287 3.56557 7.16437 3.60053C6.26234 3.63212 5.43987 4.12427 4.98555 4.90358ZM3.80842 6.53337C2.94965 6.03756 2.65541 4.93945 3.15123 4.08068L3.24793 3.91319C4.04586 2.53112 5.49949 1.6576 7.09438 1.60176C9.14237 1.53005 10.897 3.05447 11.1122 5.09238L11.336 7.21168C11.5076 8.83721 9.76262 9.97102 8.34703 9.15374L3.80842 6.53337Z" fill="white"/>
<path d="M10.548 7.30594V2.06521C10.548 1.62587 10.9041 1.26971 11.3435 1.26971H11.5369C12.788 1.26971 13.9508 1.91421 14.6139 2.97513C15.4217 4.26762 15.0923 5.96476 13.8596 6.86124L12.1361 8.11468C11.4752 8.59539 10.548 8.12323 10.548 7.30594Z" stroke="white" stroke-width="2"/>
</svg>
