<svg width="270" height="268" viewBox="0 0 270 268" fill="none" xmlns="http://www.w3.org/2000/svg">
<circle cx="69.5183" cy="218.121" r="6.24894" transform="rotate(-12.5 69.5183 218.121)" fill="white"/>
<circle cx="136.765" cy="241.617" r="6.24894" transform="rotate(-12.5 136.765 241.617)" fill="white"/>
<circle cx="205.808" cy="215.478" r="6.24894" transform="rotate(-12.5 205.808 215.478)" fill="white"/>
<circle cx="238.575" cy="167.841" r="6.24894" transform="rotate(-12.5 238.575 167.841)" fill="white"/>
<circle cx="234.962" cy="93.8033" r="6.24894" transform="rotate(-12.5 234.962 93.8033)" fill="white"/>
<circle cx="186.918" cy="41.4325" r="6.24894" transform="rotate(-12.5 186.918 41.4325)" fill="white"/>
<circle cx="148.758" cy="29.2133" r="6.24894" transform="rotate(-12.5 148.758 29.2133)" fill="white"/>
<circle cx="46.1301" cy="72.6445" r="6.24894" transform="rotate(-12.5 46.1301 72.6445)" fill="white"/>
<circle cx="28.8853" cy="150.321" r="6.24894" transform="rotate(-12.5 28.8853 150.321)" fill="white"/>
<circle cx="56.4541" cy="70.3557" r="6.24894" transform="rotate(-12.5 56.4541 70.3557)" fill="white"/>
<circle cx="69.0008" cy="211.343" r="6.24894" transform="rotate(-12.5 69.0008 211.343)" fill="white"/>
<circle cx="157.52" cy="233.077" r="6.24894" transform="rotate(-12.5 157.52 233.077)" fill="white"/>
<circle cx="195.068" cy="215.89" r="6.24894" transform="rotate(-12.5 195.068 215.89)" fill="white"/>
<circle cx="35.0343" cy="155.851" r="6.24894" transform="rotate(-12.5 35.0343 155.851)" fill="white"/>
<circle cx="97.6674" cy="229.605" r="6.24894" transform="rotate(-12.5 97.6674 229.605)" fill="white"/>
<circle cx="33.3833" cy="121.752" r="6.24894" transform="rotate(-12.5 33.3833 121.752)" fill="white"/>
<circle cx="173.467" cy="38.5062" r="6.24894" transform="rotate(-12.5 173.467 38.5062)" fill="white"/>
<circle cx="104.963" cy="235.865" r="5.28756" transform="rotate(-12.5 104.963 235.865)" fill="white" fill-opacity="0.8"/>
<circle cx="175.561" cy="230.062" r="5.28756" transform="rotate(-12.5 175.561 230.062)" fill="white" fill-opacity="0.8"/>
<circle cx="225.634" cy="189.419" r="5.28756" transform="rotate(-12.5 225.634 189.419)" fill="white" fill-opacity="0.8"/>
<circle cx="240.673" cy="141.773" r="5.28756" transform="rotate(-12.5 240.673 141.773)" fill="white" fill-opacity="0.8"/>
<circle cx="241.829" cy="124.776" r="5.28756" transform="rotate(-12.5 241.829 124.776)" fill="white" fill-opacity="0.8"/>
<circle cx="217.772" cy="65.1186" r="5.28756" transform="rotate(-12.5 217.772 65.1186)" fill="white" fill-opacity="0.8"/>
<circle cx="113.305" cy="29.1953" r="5.28756" transform="rotate(-12.5 113.305 29.1953)" fill="white" fill-opacity="0.8"/>
<circle cx="30.466" cy="117.475" r="5.28756" transform="rotate(-12.5 30.466 117.475)" fill="white" fill-opacity="0.8"/>
<circle cx="39.5059" cy="180.463" r="5.28756" transform="rotate(-12.5 39.5059 180.463)" fill="white" fill-opacity="0.8"/>
<circle cx="205.575" cy="58.9604" r="5.28756" transform="rotate(-12.5 205.575 58.9604)" fill="white" fill-opacity="0.8"/>
<circle cx="102.144" cy="36.5934" r="5.28756" transform="rotate(-12.5 102.144 36.5934)" fill="white" fill-opacity="0.8"/>
<circle cx="39.444" cy="95.7904" r="5.28756" transform="rotate(-12.5 39.444 95.7904)" fill="white" fill-opacity="0.8"/>
<circle cx="223.186" cy="80.6585" r="5.28756" transform="rotate(-12.5 223.186 80.6585)" fill="white" fill-opacity="0.8"/>
<circle cx="234.746" cy="110.592" r="5.28756" transform="rotate(-12.5 234.746 110.592)" fill="white" fill-opacity="0.8"/>
<circle cx="233.678" cy="159.079" r="5.28756" transform="rotate(-12.5 233.678 159.079)" fill="white" fill-opacity="0.8"/>
<circle cx="68.8726" cy="50.8624" r="4.32618" transform="rotate(-12.5 68.8726 50.8624)" fill="white" fill-opacity="0.5"/>
<circle cx="55.4486" cy="203.515" r="4.32618" transform="rotate(-12.5 55.4486 203.515)" fill="white" fill-opacity="0.5"/>
<circle cx="78.4666" cy="49.7201" r="4.32618" transform="rotate(-12.5 78.4666 49.7201)" fill="white" fill-opacity="0.5"/>
<circle cx="136.765" cy="32.8568" r="4.32618" transform="rotate(-12.5 136.765 32.8568)" fill="white" fill-opacity="0.5"/>
<circle cx="128.738" cy="236.503" r="4.32618" transform="rotate(-12.5 128.738 236.503)" fill="white" fill-opacity="0.5"/>
<circle cx="48.1569" cy="188.392" r="4.32618" transform="rotate(-12.5 48.1569 188.392)" fill="white" fill-opacity="0.5"/>
<circle cx="218.333" cy="192.022" r="4.32618" transform="rotate(-12.5 218.333 192.022)" fill="white" fill-opacity="0.5"/>
</svg>
