<svg width="147" height="147" viewBox="0 0 147 147" fill="none" xmlns="http://www.w3.org/2000/svg">
<circle cx="73.5" cy="73.5" r="73.5" fill="#5BB772" fill-opacity="0.2"/>
<circle cx="73.5009" cy="73.4999" r="58.7999" fill="#5BB772" fill-opacity="0.4"/>
<circle cx="73.4995" cy="73.5" r="44.1" fill="#5BB772"/>
<path fill-rule="evenodd" clip-rule="evenodd" d="M58.5099 82.0023C58.4202 81.9626 58.3232 81.9193 58.2196 81.8725C57.6136 81.5988 56.7745 81.2033 55.8365 80.7132C54.0055 79.7564 51.6233 78.3506 49.9117 76.7006C48.6656 75.4994 48 73.8569 48 72.166V68.0369C48 63.2793 53.0068 60.1849 57.2622 62.3126L59.1509 63.257C61.2233 63.1714 62.3391 62.5288 63.8863 61.6376C64.0127 61.5648 64.142 61.4904 64.2749 61.4144C66.3572 60.2245 68.8559 59 73.6 59C78.344 59 80.8428 60.2245 82.9251 61.4144C83.0572 61.4899 83.1858 61.564 83.3115 61.6364L83.3137 61.6376C84.8609 62.5288 85.9767 63.1714 88.0491 63.257L89.9378 62.3126C94.1932 60.1849 99.2 63.2793 99.2 68.0369V72.166C99.2 73.8569 98.5344 75.4994 97.2883 76.7006C95.5766 78.3506 93.1945 79.7564 91.3635 80.7132C90.4255 81.2033 89.5864 81.5988 88.9804 81.8725C88.8767 81.9193 88.7798 81.9626 88.6901 82.0023C85.7958 87.0408 80.1425 91 73.6 91C67.0575 91 61.4042 87.0408 58.5099 82.0023ZM56.5333 76.0667C55.1734 75.2496 53.8113 74.2961 52.8545 73.3212C52.4828 72.9424 52.2667 72.4085 52.2667 71.8219V67.5895C52.2667 65.964 53.8852 64.9067 55.2608 65.6337L56.2919 66.1786C56.2629 66.6111 56.2332 67.1216 56.2083 67.6918C56.1296 69.4905 56.096 71.922 56.2883 74.3881C56.3287 74.906 56.4185 75.4827 56.5333 76.0667ZM90.6666 76.0667C92.0266 75.2496 93.3886 74.2961 94.3455 73.3212C94.7172 72.9424 94.9333 72.4085 94.9333 71.8219V67.5895C94.9333 65.964 93.3148 64.9067 91.9391 65.6337L90.908 66.1786C90.937 66.6111 90.9667 67.1216 90.9917 67.6918C91.0704 69.4905 91.104 71.922 90.9117 74.3881C90.8713 74.906 90.7815 75.4827 90.6666 76.0667ZM80.954 71.4919C76.0868 69.0583 71.1132 69.0582 66.2459 71.4919C65.1921 72.0188 64.765 73.3003 65.2919 74.3541C65.8188 75.4079 67.1002 75.835 68.1541 75.3081C71.8201 73.4751 75.3799 73.4751 79.0459 75.3081C80.0997 75.835 81.3812 75.4079 81.9081 74.3541C82.435 73.3002 82.0079 72.0188 80.954 71.4919Z" fill="white"/>
</svg>
