<svg width="264" height="260" viewBox="0 0 264 260" fill="none" xmlns="http://www.w3.org/2000/svg">
<circle cx="6.87915" cy="138.664" r="6.39699" transform="rotate(-94.5 6.87915 138.664)" fill="white" fill-opacity="0.8"/>
<circle cx="98.6943" cy="252.772" r="6.39699" transform="rotate(-94.5 98.6943 252.772)" fill="white" fill-opacity="0.8"/>
<circle cx="175.679" cy="252.546" r="6.39699" transform="rotate(-94.5 175.679 252.546)" fill="white" fill-opacity="0.8"/>
<circle cx="58.0747" cy="33.1349" r="6.39699" transform="rotate(-94.5 58.0747 33.1349)" fill="white" fill-opacity="0.8"/>
<circle cx="13.8618" cy="153.281" r="6.39699" transform="rotate(-94.5 13.8618 153.281)" fill="white" fill-opacity="0.8"/>
<circle cx="74.2277" cy="238.363" r="6.39699" transform="rotate(-94.5 74.2277 238.363)" fill="white" fill-opacity="0.8"/>
<circle cx="87.0343" cy="15.6903" r="6.39699" transform="rotate(-94.5 87.0343 15.6903)" fill="white" fill-opacity="0.8"/>
<circle cx="124.843" cy="6.87919" r="6.39699" transform="rotate(-94.5 124.843 6.87919)" fill="white" fill-opacity="0.8"/>
<circle cx="182.753" cy="16.3218" r="6.39699" transform="rotate(-94.5 182.753 16.3218)" fill="white" fill-opacity="0.8"/>
<circle cx="25.3563" cy="195.543" r="5.23389" transform="rotate(-94.5 25.3563 195.543)" fill="white" fill-opacity="0.5"/>
<circle cx="205.979" cy="237.329" r="5.23389" transform="rotate(-94.5 205.979 237.329)" fill="white" fill-opacity="0.5"/>
<circle cx="25.6019" cy="183.856" r="5.23389" transform="rotate(-94.5 25.6019 183.856)" fill="white" fill-opacity="0.5"/>
<circle cx="15.2157" cy="111.175" r="5.23389" transform="rotate(-94.5 15.2157 111.175)" fill="white" fill-opacity="0.5"/>
<circle cx="257.84" cy="155.08" r="5.23389" transform="rotate(-94.5 257.84 155.08)" fill="white" fill-opacity="0.5"/>
<circle cx="186.634" cy="243.518" r="5.23389" transform="rotate(-94.5 186.634 243.518)" fill="white" fill-opacity="0.5"/>
<circle cx="219.637" cy="40.2528" r="5.23389" transform="rotate(-94.5 219.637 40.2528)" fill="white" fill-opacity="0.5"/>
</svg>
