<svg width="147" height="147" viewBox="0 0 147 147" fill="none" xmlns="http://www.w3.org/2000/svg">
<circle cx="73.5" cy="73.5" r="73.5" fill="#5BB772" fill-opacity="0.2"/>
<circle cx="73.5009" cy="73.4999" r="58.7999" fill="#5BB772" fill-opacity="0.4"/>
<circle cx="73.4994" cy="73.5" r="44.1" fill="#5BB772"/>
<path d="M63.3744 65.3128C62.7453 66.3496 62.4873 67.4924 62.3666 68.7728C62.25 70.0087 62.25 71.5389 62.25 73.4144L62.25 73.5L62.25 73.5856C62.25 75.4611 62.25 76.9913 62.3666 78.2272C62.4873 79.5076 62.7453 80.6504 63.3744 81.6872C64.0208 82.7523 64.9144 83.6459 65.9795 84.2922C67.0163 84.9214 68.159 85.1793 69.4394 85.3001C70.6754 85.4167 72.2056 85.4167 74.0811 85.4167H74.1667H74.2522C76.1278 85.4167 77.6579 85.4167 78.8939 85.3001C80.1743 85.1793 81.317 84.9214 82.3538 84.2922C83.419 83.6459 84.3126 82.7523 84.9589 81.6872C85.588 80.6504 85.846 79.5076 85.9668 78.2272C86.0834 76.9913 86.0834 75.4611 86.0833 73.5856V73.5V73.4144C86.0834 71.5389 86.0834 70.0087 85.9668 68.7728C85.846 67.4924 85.588 66.3496 84.9589 65.3128C84.3126 64.2477 83.419 63.3541 82.3538 62.7078C81.317 62.0786 80.1743 61.8207 78.8939 61.6999C77.6579 61.5833 76.1278 61.5833 74.2522 61.5833L74.1667 61.5833L74.0811 61.5833C72.2056 61.5833 70.6754 61.5833 69.4394 61.6999C68.159 61.8207 67.0163 62.0786 65.9795 62.7078C64.9144 63.3541 64.0208 64.2477 63.3744 65.3128Z" stroke="white" stroke-width="3.5"/>
<path d="M66.6667 54C66.6667 51.1716 66.6667 49.7574 67.5454 48.8787C68.424 48 69.8383 48 72.6667 48H75.6667C78.4951 48 79.9093 48 80.788 48.8787C81.6667 49.7574 81.6667 51.1716 81.6667 54V57C81.6667 59.8284 81.6667 61.2426 80.788 62.1213C79.9093 63 78.4951 63 75.6667 63H72.6667C69.8383 63 68.424 63 67.5454 62.1213C66.6667 61.2426 66.6667 59.8284 66.6667 57V54Z" fill="white"/>
<path d="M66.6667 93C66.6667 95.8284 66.6667 97.2426 67.5454 98.1213C68.424 99 69.8383 99 72.6667 99H75.6667C78.4951 99 79.9093 99 80.788 98.1213C81.6667 97.2426 81.6667 95.8284 81.6667 93V90C81.6667 87.1716 81.6667 85.7574 80.788 84.8787C79.9093 84 78.4951 84 75.6667 84H72.6667C69.8383 84 68.424 84 67.5454 84.8787C66.6667 85.7574 66.6667 87.1716 66.6667 90V93Z" fill="white"/>
</svg>
