<svg width="147" height="147" viewBox="0 0 147 147" fill="none" xmlns="http://www.w3.org/2000/svg">
<circle cx="73.5" cy="73.5" r="73.5" fill="#5BB772" fill-opacity="0.2"/>
<circle cx="73.5009" cy="73.4999" r="58.7999" fill="#5BB772" fill-opacity="0.4"/>
<circle cx="73.4994" cy="73.5" r="44.1" fill="#5BB772"/>
<path d="M75.8156 58.7248C75.1317 59.4223 74.052 60.9827 74.052 60.9827C74.052 60.9827 72.9723 59.4223 72.2884 58.7248C67.4184 53.7584 59.5225 53.7584 54.6525 58.7248C50.0469 63.4217 49.7968 70.8784 53.9025 75.8749H58.4177L63.1201 69.2061C63.552 68.5936 64.2546 68.2293 65.004 68.2293C65.7535 68.2293 66.4561 68.5936 66.888 69.2061L71.5904 75.8749H79.021C80.2941 75.8749 81.3262 76.907 81.3262 78.1801C81.3262 79.4532 80.2941 80.4853 79.021 80.4853H70.3952C69.6458 80.4853 68.9431 80.121 68.5112 79.5085L65.004 74.5347L61.4969 79.5085C61.065 80.121 60.3623 80.4853 59.6129 80.4853H58.3545L73.2291 95.6544C73.6809 96.1152 74.4231 96.1152 74.875 95.6544L93.4515 76.71C98.3216 71.7435 98.3215 63.6913 93.4515 58.7248C88.5815 53.7584 80.6856 53.7584 75.8156 58.7248Z" fill="white"/>
</svg>
