<svg width="269" height="273" viewBox="0 0 269 273" fill="none" xmlns="http://www.w3.org/2000/svg">
<circle cx="206.887" cy="55.3812" r="5.82085" transform="rotate(-72.5 206.887 55.3812)" fill="white" fill-opacity="0.8"/>
<circle cx="13.0028" cy="152.935" r="4.76252" transform="rotate(-72.5 13.0028 152.935)" fill="white" fill-opacity="0.5"/>
<circle cx="151.149" cy="249.758" r="4.76252" transform="rotate(-72.5 151.149 249.758)" fill="white" fill-opacity="0.5"/>
<circle cx="17.1949" cy="143.16" r="4.76252" transform="rotate(-72.5 17.1949 143.16)" fill="white" fill-opacity="0.5"/>
<circle cx="33.2064" cy="78.2986" r="4.76252" transform="rotate(-72.5 33.2064 78.2986)" fill="white" fill-opacity="0.5"/>
<circle cx="222.939" cy="198.044" r="4.76252" transform="rotate(-72.5 222.939 198.044)" fill="white" fill-opacity="0.5"/>
<circle cx="132.717" cy="248.385" r="4.76252" transform="rotate(-72.5 132.717 248.385)" fill="white" fill-opacity="0.5"/>
<circle cx="229.848" cy="88.144" r="4.76252" transform="rotate(-72.5 229.848 88.144)" fill="white" fill-opacity="0.5"/>
<circle cx="221.106" cy="227.27" r="7.56007" transform="rotate(-94.5 221.106 227.27)" fill="white"/>
<circle cx="260.579" cy="150.661" r="7.56007" transform="rotate(-94.5 260.579 150.661)" fill="white"/>
<circle cx="189.333" cy="16.2685" r="7.56007" transform="rotate(-94.5 189.333 16.2685)" fill="white"/>
<circle cx="100.025" cy="8.12991" r="7.56007" transform="rotate(-94.5 100.025 8.12991)" fill="white"/>
<circle cx="29.1945" cy="56.8704" r="7.56007" transform="rotate(-94.5 29.1945 56.8704)" fill="white"/>
<circle cx="8.12989" cy="100.53" r="7.56007" transform="rotate(-94.5 8.12989 100.53)" fill="white"/>
<circle cx="42.8822" cy="230.795" r="7.56007" transform="rotate(-94.5 42.8822 230.795)" fill="white"/>
<circle cx="133.039" cy="264.533" r="7.56007" transform="rotate(-94.5 133.039 264.533)" fill="white"/>
</svg>
