<svg width="230" height="249" viewBox="0 0 230 249" fill="none" xmlns="http://www.w3.org/2000/svg">
<circle cx="221.884" cy="68.2244" r="5.82085" transform="rotate(-72.5 221.884 68.2244)" fill="white" fill-opacity="0.8"/>
<circle cx="184.737" cy="27.6602" r="5.82085" transform="rotate(-72.5 184.737 27.6602)" fill="white" fill-opacity="0.8"/>
<circle cx="169.169" cy="17.2028" r="5.82085" transform="rotate(-72.5 169.169 17.2028)" fill="white" fill-opacity="0.8"/>
<circle cx="99.0511" cy="7.30182" r="5.82085" transform="rotate(-72.5 99.0511 7.30182)" fill="white" fill-opacity="0.8"/>
<circle cx="7.30181" cy="87.1229" r="5.82085" transform="rotate(-72.5 7.30181 87.1229)" fill="white" fill-opacity="0.8"/>
<circle cx="45.8687" cy="214.69" r="5.82085" transform="rotate(-72.5 45.8687 214.69)" fill="white" fill-opacity="0.8"/>
<circle cx="110.895" cy="240.741" r="5.82085" transform="rotate(-72.5 110.895 240.741)" fill="white" fill-opacity="0.8"/>
<circle cx="86.4662" cy="15.5402" r="5.82085" transform="rotate(-72.5 86.4662 15.5402)" fill="white" fill-opacity="0.8"/>
<circle cx="8.2116" cy="101.836" r="5.82085" transform="rotate(-72.5 8.2116 101.836)" fill="white" fill-opacity="0.8"/>
<circle cx="30.137" cy="194.194" r="5.82085" transform="rotate(-72.5 30.137 194.194)" fill="white" fill-opacity="0.8"/>
<circle cx="116.846" cy="10.6934" r="5.82085" transform="rotate(-72.5 116.846 10.6934)" fill="white" fill-opacity="0.8"/>
<circle cx="151.746" cy="16.1486" r="5.82085" transform="rotate(-72.5 151.746 16.1486)" fill="white" fill-opacity="0.8"/>
</svg>
